name ./resultDataOpenSim/trcMotMarkerGrf/sub06/grf-14-02.mot
datacolumns 19
datarows 17
range 1.69200000 1.75600000
endheader

                time	     ground_force_vx	     ground_force_vy	     ground_force_vz	     ground_force_px	     ground_force_py	     ground_force_pz	   l_ground_force_vx	   l_ground_force_vy	   l_ground_force_vz	   l_ground_force_px	   l_ground_force_py	   l_ground_force_pz	     ground_torque_x	     ground_torque_y	     ground_torque_z	   l_ground_torque_x	   l_ground_torque_y	   l_ground_torque_z	
          1.69200000	        203.10686597	        546.68119115	        -23.36379454	          0.90416638	          0.00000000	          0.03478052	          0.00000000	          0.00000000	          0.00000000	          0.00000000	          0.00000000	          0.00000000	          0.00000000	          2.99347332	          0.00000000	          0.00000000	          0.00000000	          0.00000000	
          1.69600000	        203.30177113	        517.67926398	        -20.63692124	          0.90346049	          0.00000000	          0.03481164	          0.00000000	          0.00000000	          0.00000000	          0.00000000	          0.00000000	          0.00000000	          0.00000000	          2.83120315	          0.00000000	          0.00000000	          0.00000000	          0.00000000	
          1.70000000	        200.75086573	        484.19920198	        -17.71110532	          0.90286767	          0.00000000	          0.03491037	          0.00000000	          0.00000000	          0.00000000	          0.00000000	          0.00000000	          0.00000000	          0.00000000	          2.66969166	          0.00000000	          0.00000000	          0.00000000	          0.00000000	
          1.70400000	        195.05784603	        446.36413554	        -14.72809790	          0.90244290	          0.00000000	          0.03510181	          0.00000000	          0.00000000	          0.00000000	          0.00000000	          0.00000000	          0.00000000	          0.00000000	          2.50717914	          0.00000000	          0.00000000	          0.00000000	          0.00000000	
          1.70800000	        185.88770931	        404.89314914	        -11.83893007	          0.90228238	          0.00000000	          0.03540659	          0.00000000	          0.00000000	          0.00000000	          0.00000000	          0.00000000	          0.00000000	          0.00000000	          2.34325192	          0.00000000	          0.00000000	          0.00000000	          0.00000000	
          1.71200000	        173.05274058	        361.18785836	         -9.15750168	          0.90255553	          0.00000000	          0.03582056	          0.00000000	          0.00000000	          0.00000000	          0.00000000	          0.00000000	          0.00000000	          0.00000000	          2.18111899	          0.00000000	          0.00000000	          0.00000000	          0.00000000	
          1.71600000	        156.64859027	        317.12479473	         -6.71997931	          0.90350808	          0.00000000	          0.03628710	          0.00000000	          0.00000000	          0.00000000	          0.00000000	          0.00000000	          0.00000000	          0.00000000	          2.02714126	          0.00000000	          0.00000000	          0.00000000	          0.00000000	
          1.72000000	        137.17983268	        274.59665400	         -4.51298184	          0.90539292	          0.00000000	          0.03671386	          0.00000000	          0.00000000	          0.00000000	          0.00000000	          0.00000000	          0.00000000	          0.00000000	          1.88754930	          0.00000000	          0.00000000	          0.00000000	          0.00000000	
          1.72400000	        115.61942272	        235.03852999	         -2.51518701	          0.90841475	          0.00000000	          0.03700723	          0.00000000	          0.00000000	          0.00000000	          0.00000000	          0.00000000	          0.00000000	          0.00000000	          1.76410141	          0.00000000	          0.00000000	          0.00000000	          0.00000000	
          1.72800000	         93.34248229	        199.17716148	         -0.71316351	          0.91262268	          0.00000000	          0.03708846	          0.00000000	          0.00000000	          0.00000000	          0.00000000	          0.00000000	          0.00000000	          0.00000000	          1.65136417	          0.00000000	          0.00000000	          0.00000000	          0.00000000	
          1.73200000	         71.89891090	        167.06667908	          0.88331995	          0.91774368	          0.00000000	          0.03691311	          0.00000000	          0.00000000	          0.00000000	          0.00000000	          0.00000000	          0.00000000	          0.00000000	          1.53778758	          0.00000000	          0.00000000	          0.00000000	          0.00000000	
          1.73600000	         52.69332078	        138.33621272	          2.22532632	          0.92326897	          0.00000000	          0.03649544	          0.00000000	          0.00000000	          0.00000000	          0.00000000	          0.00000000	          0.00000000	          0.00000000	          1.41088055	          0.00000000	          0.00000000	          0.00000000	          0.00000000	
          1.74000000	         36.70403819	        112.52409723	          3.23740986	          0.92864516	          0.00000000	          0.03592361	          0.00000000	          0.00000000	          0.00000000	          0.00000000	          0.00000000	          0.00000000	          0.00000000	          1.26430243	          0.00000000	          0.00000000	          0.00000000	          0.00000000	
          1.74400000	         24.34317189	         89.34986873	          3.86326338	          0.93330234	          0.00000000	          0.03532034	          0.00000000	          0.00000000	          0.00000000	          0.00000000	          0.00000000	          0.00000000	          0.00000000	          1.10299756	          0.00000000	          0.00000000	          0.00000000	          0.00000000	
          1.74800000	         15.49613135	         68.78907889	          4.11003405	          0.93672161	          0.00000000	          0.03478198	          0.00000000	          0.00000000	          0.00000000	          0.00000000	          0.00000000	          0.00000000	          0.00000000	          0.94292233	          0.00000000	          0.00000000	          0.00000000	          0.00000000	
          1.75200000	          9.68498579	         50.92780378	          4.04905905	          0.93824316	          0.00000000	          0.03441338	          0.00000000	          0.00000000	          0.00000000	          0.00000000	          0.00000000	          0.00000000	          0.00000000	          0.80464074	          0.00000000	          0.00000000	          0.00000000	          0.00000000	
          1.75600000	          6.24451658	         35.72711704	          3.77680311	          0.93644636	          0.00000000	          0.03438229	          0.00000000	          0.00000000	          0.00000000	          0.00000000	          0.00000000	          0.00000000	          0.00000000	          0.70380569	          0.00000000	          0.00000000	          0.00000000	          0.00000000	
